<svg width="32" height="32" viewBox="0 0 32 32" fill="none" xmlns="http://www.w3.org/2000/svg">
<path d="M18.1768 11.6834V11.7915C18.1768 11.9071 18.1772 12.0195 18.1777 12.1296C18.1789 12.4585 18.1801 12.7665 18.1694 13.0736L18.1694 13.0736C18.1681 13.1111 18.1541 13.1442 18.14 13.1691C18.1252 13.1951 18.1062 13.219 18.0862 13.2398C18.0478 13.2798 17.9957 13.3186 17.9427 13.337L17.9427 13.337C17.8062 13.3845 17.6585 13.3973 17.5284 13.4067C17.447 13.4127 17.366 13.418 17.2855 13.4234C16.7157 13.4614 16.1673 13.4979 15.6509 13.729C14.4243 14.2784 13.6803 15.2087 13.4582 16.5277L13.4582 16.5277C13.3803 16.9905 13.3781 17.4698 13.3759 17.9534C13.3758 17.9893 13.3756 18.0252 13.3754 18.0611C13.3648 20.0432 13.3643 22.0255 13.3675 24.0077C13.3683 24.459 13.5332 24.8266 13.8044 25.0774C14.076 25.3285 14.461 25.4687 14.9124 25.451C15.4443 25.4302 15.9783 25.4336 16.5096 25.437C16.7222 25.4383 16.9343 25.4396 17.1456 25.4394C17.4198 25.4392 17.6745 25.4126 17.9069 25.2953C18.375 25.0586 18.5653 24.6537 18.5808 24.1389C18.5808 24.1389 18.5808 24.1389 18.5808 24.1389L18.1768 11.6834ZM18.1768 11.6834L18.069 11.6918M18.1768 11.6834L18.069 11.6918M18.069 11.6918C17.8864 11.7061 17.7048 11.7183 17.5241 11.7304C17.1252 11.7572 16.7308 11.7837 16.3409 11.8313C15.3849 11.9482 14.5303 12.3299 13.7861 12.9318L13.7861 12.9318M18.069 11.6918L13.7861 12.9318M20.6278 13.0182L20.6278 13.0181C20.6327 12.6671 20.6352 12.3165 20.6313 11.9663L20.6313 11.9662C20.6306 11.9 20.6437 11.8277 20.7023 11.7786C20.7562 11.7333 20.8257 11.7285 20.8779 11.7292L20.878 11.7292C21.352 11.7348 21.8264 11.7396 22.3009 11.7445C22.9098 11.7507 23.5189 11.7569 24.1275 11.7647C24.5493 11.7701 24.9794 11.8147 25.3811 12.0057L25.3811 12.0057C26.4494 12.5138 27.034 13.3779 27.0826 14.5523L27.0826 14.5523C27.1205 15.4759 27.1058 16.402 27.0912 17.3234C27.0903 17.3754 27.0895 17.4274 27.0887 17.4794L27.0887 17.4794C27.0688 18.7377 26.0625 19.9306 24.8397 20.1549C24.5663 20.2051 24.2852 20.215 24.0151 20.2214C23.5791 20.232 23.1449 20.2395 22.7111 20.2469C22.161 20.2563 21.6116 20.2657 21.0603 20.2817C20.7842 20.2898 20.5955 20.3648 20.4738 20.4911C20.3518 20.6178 20.2819 20.8121 20.2776 21.0911C20.2776 21.0911 20.2776 21.0911 20.2776 21.0911L20.1776 21.0896C20.163 22.052 20.1547 23.0145 20.1469 23.9768L20.6278 13.0182ZM20.6278 13.0182C20.6264 13.1214 20.6528 13.2135 20.7171 13.2826C20.7806 13.3508 20.8684 13.3829 20.9622 13.3934M20.6278 13.0182L23.9811 13.3969M13.7861 12.9318C12.449 14.0135 11.7522 15.4246 11.7441 17.1496C11.7353 19.0434 11.7377 20.9372 11.7402 22.8306M13.7861 12.9318L11.7402 22.8306M23.7474 18.5887C24.0104 18.5809 24.2663 18.5733 24.5085 18.5194C25.0752 18.3934 25.4324 17.9525 25.4474 17.3239L23.7474 18.5887ZM23.7474 18.5887C23.7325 18.5891 23.7176 18.5895 23.7026 18.59L23.7474 18.5887ZM23.9811 13.3969C23.317 13.3953 22.6531 13.3965 21.989 13.3977C21.7484 13.3982 21.5078 13.3986 21.2672 13.3989C21.2454 13.3989 21.2224 13.3993 21.1986 13.3997C21.124 13.4009 21.0413 13.4023 20.9622 13.3934M23.9811 13.3969C24.1378 13.3973 24.2854 13.3986 24.42 13.4323L23.9811 13.3969ZM20.9622 13.3934L20.9734 13.294L20.9623 13.3934C20.9623 13.3934 20.9623 13.3934 20.9622 13.3934ZM11.7402 22.8306C11.7407 23.2884 11.7413 23.7461 11.7418 24.2038L11.7402 22.8306ZM17.3569 27.0858C18.397 27.0696 19.2079 26.6154 19.7796 25.7411L11.7418 24.2038C11.7419 24.3793 11.7517 24.562 11.787 24.7395L11.787 24.7395C12.0543 26.0831 13.2029 27.0571 14.5873 27.0877L14.5873 27.0877C15.5107 27.1079 16.4347 27.1004 17.3569 27.0858ZM21.0406 18.6588C20.7422 18.6706 20.4381 18.7175 20.1503 18.7997C20.1503 18.7997 20.1503 18.7997 20.1503 18.7997L20.1777 18.8959C19.317 19.1415 18.9119 19.7831 18.8114 20.6219C18.7444 21.1815 18.7249 21.7474 18.7055 22.312C18.703 22.3862 18.7004 22.4603 18.6977 22.5344L21.0406 18.6588ZM25.1719 13.879C25.3416 14.0916 25.4382 14.3749 25.4478 14.736L24.42 13.4323C24.7524 13.5157 25.0023 13.6664 25.1719 13.879Z" fill="#2075D9" stroke="#2075D9" stroke-width="0.2"/>
<path d="M11.3124 20.2081L11.2207 20.2157C11.1907 20.2182 11.1607 20.2212 11.1309 20.2243C11.0643 20.231 10.9987 20.2377 10.9364 20.2378H10.9364C10.1721 20.239 9.4078 20.2392 8.64364 20.2393C8.411 20.2393 8.17837 20.2393 7.94575 20.2394C7.25336 20.2397 6.60383 20.0697 6.04339 19.6357L6.04338 19.6357C5.30867 19.0666 4.95361 18.2936 4.90755 17.3836L5.00742 17.3786L4.90755 17.3836C4.89583 17.1519 4.90026 16.9161 4.90461 16.6843C4.90689 16.5629 4.90915 16.4426 4.90905 16.3246L4.90905 16.3246C4.90897 16.1972 4.90937 16.0701 4.90977 15.9432C4.91091 15.5805 4.91204 15.2196 4.90182 14.8585L4.90182 14.8585C4.86122 13.4173 5.66085 12.2778 7.04439 11.8713C7.34516 11.7828 7.66856 11.7584 7.97362 11.7515M11.3124 20.2081L7.97586 11.8515M11.3124 20.2081V20.116M11.3124 20.2081V20.116M7.97362 11.7515L7.97586 11.8515M7.97362 11.7515C7.97362 11.7515 7.97362 11.7515 7.97362 11.7515L7.97586 11.8515M7.97362 11.7515C8.42677 11.7413 8.8799 11.7385 9.33214 11.736L9.38068 11.7357C9.81693 11.7332 10.2523 11.7308 10.6875 11.722M7.97586 11.8515C8.4443 11.841 8.91287 11.8383 9.38144 11.8357C9.81752 11.8332 10.2536 11.8308 10.6895 11.822M10.6875 11.722L10.6895 11.822M10.6875 11.722C10.6875 11.722 10.6875 11.722 10.6875 11.722L10.6895 11.822M10.6875 11.722C10.902 11.7176 11.1215 11.6695 11.3423 11.6142L11.3666 11.7112L11.3421 11.6142C11.5184 11.5698 11.6262 11.4384 11.6555 11.2529L11.6555 11.2529C11.6964 10.9942 11.7282 10.7348 11.732 10.4783C11.732 10.4783 11.732 10.4783 11.732 10.4783L11.8319 10.4797C11.8392 9.97585 11.8402 9.47186 11.8413 8.96785C11.842 8.619 11.8427 8.27015 11.8455 7.92133L10.6895 11.822M11.3124 20.116C11.3124 19.9892 11.3124 19.8646 11.3124 19.7417C11.3125 19.4672 11.3125 19.2008 11.3123 18.9345L11.3123 18.93C11.3123 18.8775 11.3123 18.8301 11.3081 18.7924C11.3039 18.7545 11.2936 18.7046 11.255 18.6657C11.2162 18.6266 11.1664 18.6162 11.1285 18.6118C11.0912 18.6076 11.0443 18.6075 10.9926 18.6074L10.9873 18.6074C10.7054 18.6069 10.4237 18.6071 10.1422 18.6074C9.36937 18.6082 8.59781 18.6089 7.82618 18.5926L11.3124 20.116ZM14.8347 20.2245C15.4789 20.2205 16.1028 20.1109 16.7103 19.8919L14.1809 18.7022L14.1759 18.6023C14.0658 18.6079 13.9606 18.6256 13.8898 18.6987C13.8184 18.7724 13.8058 18.8776 13.8058 18.9858C13.8059 19.0922 13.8062 19.1983 13.8066 19.3042C13.8072 19.5092 13.8079 19.7136 13.8063 19.9184C13.8055 20.0071 13.8246 20.0945 13.8872 20.1578C13.9504 20.2218 14.038 20.241 14.1281 20.2386L14.1281 20.2386C14.3644 20.2323 14.5996 20.2262 14.8347 20.2245ZM14.8347 20.2245L14.834 20.1245L14.8347 20.2245C14.8347 20.2245 14.8347 20.2245 14.8347 20.2245ZM6.61363 14.2516L6.61361 14.2517C6.56095 14.3966 6.52842 14.5557 6.52703 14.7059C6.51944 15.5351 6.51744 16.364 6.53045 17.1923L6.43047 17.1938L6.53045 17.1923C6.5387 17.719 6.69539 18.1641 7.16567 18.41C7.16567 18.41 7.16567 18.41 7.16568 18.41L7.11933 18.4987L6.61363 14.2516ZM6.61363 14.2516C6.80758 13.7167 7.32367 13.3689 7.94876 13.3594L6.61363 14.2516ZM13.3541 7.92049C13.3625 7.1081 13.9666 6.52499 14.7779 6.52958L8.42609 13.3628L8.44678 13.3631C8.61373 13.3661 8.78269 13.3689 8.9519 13.3653L8.95194 13.3653C9.16617 13.3607 9.38157 13.3584 9.59761 13.356C10.2059 13.3494 10.8193 13.3427 11.4262 13.2852C12.1448 13.2171 12.7067 12.8206 13.0322 12.1525L13.0322 12.1525C13.2479 11.7095 13.336 11.2364 13.3418 10.7556C13.3475 10.2825 13.3481 9.80946 13.3486 9.337L13.3486 9.28013C13.349 8.8265 13.3495 8.37343 13.3541 7.92049Z" fill="#2075D9" stroke="#2075D9" stroke-width="0.2"/>
</svg>
